<?xml version="1.0" encoding="UTF-8" standalone="no"?>
<!-- Created with Inkscape (http://www.inkscape.org/) -->

<svg
   xmlns:dc="http://purl.org/dc/elements/1.1/"
   xmlns:cc="http://creativecommons.org/ns#"
   xmlns:rdf="http://www.w3.org/1999/02/22-rdf-syntax-ns#"
   xmlns:svg="http://www.w3.org/2000/svg"
   xmlns="http://www.w3.org/2000/svg"
   xmlns:sodipodi="http://sodipodi.sourceforge.net/DTD/sodipodi-0.dtd"
   xmlns:inkscape="http://www.inkscape.org/namespaces/inkscape"
   width="504.78265mm"
   height="362.37332mm"
   viewBox="0 0 1788.6 1284"
   id="svg3358"
   version="1.1"
   inkscape:version="0.91 r"
   sodipodi:docname="EnSfr_HA072_Stander_alt.svg">
  <defs
     id="defs3360" />
  <sodipodi:namedview
     id="base"
     pagecolor="#ffffff"
     bordercolor="#666666"
     borderopacity="1.0"
     inkscape:pageopacity="0.0"
     inkscape:pageshadow="2"
     inkscape:zoom="0.35"
     inkscape:cx="557.87147"
     inkscape:cy="604.85713"
     inkscape:document-units="px"
     inkscape:current-layer="layer1"
     showgrid="false"
     fit-margin-top="0"
     fit-margin-left="0"
     fit-margin-right="0"
     fit-margin-bottom="0"
     inkscape:window-width="1600"
     inkscape:window-height="876"
     inkscape:window-x="0"
     inkscape:window-y="24"
     inkscape:window-maximized="1" />
  <metadata
     id="metadata3363">
    <rdf:RDF>
      <cc:Work
         rdf:about="">
        <dc:format>image/svg+xml</dc:format>
        <dc:type
           rdf:resource="http://purl.org/dc/dcmitype/StillImage" />
        <dc:title></dc:title>
      </cc:Work>
    </rdf:RDF>
  </metadata>
  <g
     inkscape:label="Layer 1"
     inkscape:groupmode="layer"
     id="layer1"
     transform="translate(1120.0143,146.78064)">
    <g
       id="g3435"
       transform="translate(-8.5714243,68.571433)">
      <path
         style="fill:#fdfdfd"
         d="m -1111.4429,426.64793 0,-642 894.3,0 894.3,0 0,642 0,641.99997 -894.3,0 -894.3,0 0,-641.99997 z"
         id="path3451"
         inkscape:connector-curvature="0" />
      <path
         style="fill:#f0ec4c"
         d="m -1109.2431,873.49793 c -0.2189,-105.3525 -0.6632,-362.865 -0.9873,-572.25 -0.324,-209.385 -0.6925,-411.1425 -0.8188,-448.35 -0.1263,-37.2075 -0.1281,-67.65 0,-67.65 0.1241,0 83.7197,29.45232 185.76796,65.4496 167.9428,59.241434 364.18743,128.456822 757.34224,267.11424 75.24,26.53555 295.6275,104.245 489.75,172.68766 194.1225,68.44266 352.95,124.75144 352.95,125.13064 0,0.85548 12.0441,-3.6321 -89.4,33.31008 -274.90638,100.1106 -340.8408,124.12488 -389.4,141.8253 -71.34468,26.00592 -246.78882,89.81964 -291.9,106.17186 -44.85378,16.25886 -618.21409,224.99436 -651,237.00072 -13.2,4.8339 -97.035,35.37876 -186.3,67.87747 -89.265,32.4988 -164.8038,60.021 -167.8641,61.1605 -3.0602,1.1396 -6.0532,2.0719 -6.651,2.0719 -1.0462,0 -1.1019,-7.1866 -1.4851,-191.54997 z"
         id="path3449"
         inkscape:connector-curvature="0" />
      <path
         style="fill:#db5f33"
         d="m -1108.0655,1023.1979 c -1.0162,-102.33063 -1.5895,-289.75941 -2.1521,-703.64997 -0.3342,-245.85 -0.7464,-466.6425 -0.9161,-490.65 -0.1696,-24.0075 -0.1701,-43.65 -10e-4,-43.65 0.169,0 83.8013,29.45232 185.84956,65.4496 167.9428,59.241434 364.18743,128.456822 757.34224,267.11424 75.24,26.53555 295.6275,104.245 489.75,172.68766 194.1225,68.44266 352.95,124.75144 352.95,125.13064 0,0.85536 11.6388,-3.48426 -86.7,32.32668 -282.44778,102.85596 -337.1541,122.69118 -338.38662,122.69118 -0.75378,0 -3.12036,0.65862 -5.25912,1.46364 -20.54406,7.7328 -299.44572,108.94488 -299.6493,108.74136 -0.14844,-0.1485 29.7543,-45.71526 66.4506,-101.25942 36.6963,-55.54422 66.86316,-101.54208 67.03752,-102.2175 0.1743,-0.67548 15.50544,-24.22734 34.06914,-52.33758 18.5637,-28.11024 34.05096,-51.66772 34.41612,-52.35 0.37356,-0.698 0.4182,-1.2405 0.10212,-1.2405 -0.309,0 -27.47226,14.74512 -60.36276,32.76696 -32.89056,18.02184 -61.06476,33.23718 -62.60934,33.81192 -1.54458,0.57468 -55.57032,29.96304 -120.05712,65.30742 -64.4868,35.34432 -117.43014,64.15038 -117.65178,64.01334 -0.3981,-0.246 -0.55272,-13.94328 -1.79784,-159.29964 -0.34914,-40.755 -0.89556,-76.56763 -1.21434,-79.58362 -0.31878,-3.01599 -0.8568,-34.60599 -1.19562,-70.2 -0.79602,-83.62665 -1.0827,-96.59121 -2.1123,-95.5253 -0.42978,0.44491 -15.67044,26.59392 -33.86814,58.10892 -18.19776,31.515 -33.71316,57.975 -34.47864,58.8 -0.76554,0.825 -9.3312,15.27 -19.03476,32.1 -64.98342,112.70796 -124.99146,216.3 -125.29674,216.3 -0.198,0 -26.4018,-45.37146 -58.2306,-100.8255 -31.82875,-55.45399 -58.4731,-101.4473 -59.20964,-102.20733 -0.73655,-0.76003 -22.17086,-37.67106 -47.63181,-82.02452 -25.46094,-44.35346 -46.6544,-81.03158 -47.09655,-81.50694 -0.44215,-0.47535 -0.94282,-0.72537 -1.1126,-0.55559 -0.16978,0.16978 1.02764,33.22871 2.66093,73.46429 1.63328,40.23557 2.95986,78.28559 2.94795,84.55559 -0.0119,6.27 0.67244,28.005 1.52079,48.3 0.84835,20.295 2.75975,67.005 4.24755,103.8 1.4878,36.795 3.37959,83.2896 4.20399,103.32126 1.74688,42.4467 1.64817,38.27874 0.90658,38.27874 -0.32577,0 -43.05327,-20.69088 -94.95,-45.97968 -51.89671,-25.2888 -96.38267,-46.71024 -98.85767,-47.60322 -2.475,-0.89292 -46.1651,-21.91704 -97.08911,-46.72032 -50.92402,-24.80322 -92.84149,-45.09678 -93.14999,-45.09678 -0.3085,0 -0.5545,0.2025 -0.5468,0.45 0.01,0.2475 16.27533,19.67298 36.15005,43.16772 19.87472,23.4948 36.69076,43.61682 37.36899,44.7156 1.03762,1.68114 202.0679,239.35506 206.55896,244.21044 0.83623,0.90402 1.38532,1.77882 1.2202,1.94394 -0.16512,0.16512 -44.42544,6.38202 -98.35626,13.8153 -53.93082,7.43334 -98.86604,13.80954 -99.85604,14.16936 -0.99,0.35988 -36.20259,5.4183 -78.2502,11.24094 -42.0476,5.8227 -76.536,10.8567 -76.6409,11.1867 -0.1049,0.33 18.9875,8.25906 42.4275,17.62014 23.44,9.36108 42.9788,17.3808 43.4196,17.8215 0.44071,0.44076 52.53843,21.49632 115.77267,46.79004 63.23423,25.29378 114.97133,46.1802 114.97133,46.41432 0,0.4374 -336.374,123.06217 -337.5595,123.05697 -0.4687,0 -0.7761,-11.7575 -1.0631,-40.653 z"
         id="path3445"
         inkscape:connector-curvature="0" />
      <path
         style="fill:#635365"
         d="m -1108.2259,928.54793 c 0.1249,-1.32 -0.1334,-180.06 -0.5741,-397.2 -0.4406,-217.14 -0.875,-442.455 -0.9652,-500.7 -0.1039,-67.084194 -0.279,-92.155026 -0.4777,-68.4 -0.1906,22.790478 -0.3662,-4.510392 -0.4476,-69.6 -0.074,-58.905 0.064,-106.81585 0.3068,-106.46857 0.2424,0.34729 9.8908,3.95368 21.4408,8.01419 11.55,4.06051 136.56,48.14812 277.8,97.97245 318.35814,112.305178 401.71032,141.704764 447.9,157.981156 19.965,7.0353 96.375,33.982932 169.8,59.883634 73.425,25.90069 159.555,56.27825 191.4,67.50567 53.44752,18.84371 149.32242,52.65076 321.9,113.50717 37.62,13.26603 89.325,31.49444 114.9,40.50759 25.575,9.01315 85.92,30.28789 134.1,47.2772 48.18,16.98929 91.30692,32.19341 95.83764,33.78695 4.53072,1.59348 8.04072,3.06234 7.8,3.26412 -0.24072,0.20184 -91.96764,33.6567 -203.83764,74.34414 -111.87,40.6875 -206.8425,75.26196 -211.05,76.83216 -4.2075,1.5702 -7.65,2.77548 -7.65,2.67834 0,-0.3945 7.88928,-17.90196 11.33166,-25.14666 2.02812,-4.26822 3.48066,-7.9515 3.22788,-8.18496 -0.25272,-0.23352 -3.15954,-1.01988 -6.45954,-1.7475 -20.53404,-4.52748 -45.18414,-11.32848 -61.96926,-17.09736 -10.81536,-3.71712 -11.76084,-4.12998 -34.07154,-14.87712 -35.69994,-17.19684 -55.48302,-23.6397 -77.8092,-25.3404 -2.8875,-0.21996 -5.25,-0.63006 -5.25,-0.9114 0,-0.28128 12.9918,-20.16954 28.87068,-44.19612 37.4013,-56.5924 39.52932,-59.8601 39.52932,-60.69888 0,-0.96079 1.96428,-2.00871 -63.83142,34.05312 -31.97232,17.5236 -58.52874,31.86108 -59.0142,31.86108 -0.48552,0 -0.73476,-0.3375 -0.5538,-0.75 10.7529,-24.5154 14.73054,-42.1641 14.0205,-62.20882 -0.45426,-12.82468 -2.547,-21.81996 -7.22322,-31.04803 -0.85404,-1.68539 -4.36356,-7.34583 -7.79898,-12.57875 -13.09248,-19.94299 -22.83696,-37.186 -36.06312,-63.8144 -8.5233,-17.16012 -15.92478,-33.38968 -21.2553,-46.60757 -1.80306,-4.47092 -3.21684,-7.16003 -3.82596,-7.27734 -0.53136,-0.10233 -3.34848,1.53704 -6.26028,3.64305 -14.80938,10.71107 -38.56428,25.84976 -53.89422,34.34603 -8.71914,4.83238 -13.3911,6.96827 -28.2,12.89215 -48.14208,19.25788 -71.36754,33.96513 -85.80804,54.33691 -2.23554,3.15377 -4.26558,5.51647 -4.51116,5.25045 -0.24564,-0.26602 -0.7698,-36.39368 -1.16484,-80.28368 -0.39504,-43.89 -0.83034,-80.15995 -0.96744,-80.5999 -0.13704,-0.43993 -0.53346,-0.70512 -0.88092,-0.5893 -0.34746,0.11583 -15.66984,26.24107 -34.0497,58.05611 -18.37986,31.81503 -33.74028,57.95018 -34.1343,58.07811 -0.42114,0.13672 -0.99612,-0.83457 -1.39482,-2.35621 -3.26256,-12.45025 -10.13826,-27.67992 -16.16814,-35.81239 -7.71942,-10.41118 -11.13696,-13.25601 -28.1367,-23.42156 -31.27608,-18.70259 -66.30942,-44.65882 -97.86042,-72.50486 -3.45864,-3.0525 -6.6276,-5.55 -7.04214,-5.55 -0.89418,0 -0.91248,0.0293 -7.66488,12.3 -6.8325,12.41627 -14.52018,25.19547 -22.37868,37.2 -11.2389,17.16841 -12.6771,19.00202 -30.21204,38.51809 -34.61593,38.52691 -48.22096,62.28766 -50.90013,88.89548 -0.34411,3.41747 -0.62565,6.64783 -0.62565,7.17857 0,0.86012 -0.11233,0.85267 -1.03359,-0.0686 -0.56848,-0.56847 -21.85138,-37.26313 -47.29533,-81.54368 -25.44395,-44.28055 -46.61976,-80.62943 -47.05735,-80.7753 -0.88158,-0.29385 -0.90439,-1.25275 1.19685,50.29543 0.63896,15.675 1.86959,45.86589 2.73472,67.09087 0.86513,21.22497 1.3931,38.77072 1.17327,38.99056 -0.21983,0.21983 -2.04339,-1.48606 -4.05236,-3.79087 -12.8771,-14.77341 -27.48527,-25.77888 -41.88738,-31.55703 -9.95285,-3.9931 -14.7542,-4.71515 -31.47883,-4.73395 -39.64798,-0.0446 -86.4552,-4.7125 -128.52455,-12.81733 -2.37851,-0.45823 -4.45385,-0.70385 -4.61187,-0.54582 -0.15803,0.15802 -0.12961,11.39697 0.0631,24.97544 0.52183,36.75833 -0.52896,52.11809 -5.17799,75.68813 -5.18235,26.274 -7.11283,39.77706 -7.80043,54.56136 -0.79352,17.06154 0.54681,30.68256 4.17938,42.47304 4.20353,13.64364 15.71882,32.56518 31.68615,52.0656 3.89152,4.7526 4.33787,5.59662 2.63616,4.98486 -0.5775,-0.2076 -42.84743,-20.70564 -93.93319,-45.55128 -51.08575,-24.84558 -93.40816,-45.34044 -94.04996,-45.54414 -0.6417,-0.20364 -1.1668,-0.12354 -1.1668,0.17802 0,0.30156 16.33495,19.82574 36.29995,43.38702 19.965,23.56134 36.3,43.15242 36.3,43.53582 0,0.39132 -1.3818,0.8685 -3.15,1.08786 -9.59806,1.19076 -18.77974,3.78144 -25.65,7.23732 -2.145,1.07898 -8.355,5.14596 -13.8,9.03768 -30.35785,21.69774 -69.50295,44.1753 -107.54995,61.7565 -4.8675,2.24922 -8.85,4.30872 -8.85,4.57662 0,0.2679 3.3335,4.88064 7.4078,10.2504 13.7777,18.1587 22.4205,30.59832 32.2574,46.42866 5.6354,9.06894 9.2188,16.16616 17.6886,35.03466 15.7711,35.1336 28.8434,55.51512 45.09121,70.30338 11.39078,10.36752 30.52108,19.55328 55.78663,26.78688 5.37257,1.53822 9.76831,2.98068 9.76831,3.20556 0,0.62376 1.49406,0.40674 -77.99995,11.32974 -41.085,5.64528 -74.9436,10.50108 -75.2413,10.79058 -0.7194,0.69966 -2.9104,-0.22734 43.9235,18.58386 22.5938,9.075 41.1108,16.74348 41.1488,17.04102 0.038,0.29754 -2.361,1.1826 -5.331,1.96674 -34.6936,9.1596 -66.2558,27.23832 -83.5653,47.86572 -8.0572,9.60174 -12.3763,17.06604 -16.1593,27.92652 -1.4898,4.27698 -1.9288,5.10084 -1.7584,3.3 z"
         id="path3439"
         inkscape:connector-curvature="0" />
    </g>
  </g>
</svg>
